<?xml version="1.0" standalone="no"?>
<!DOCTYPE svg PUBLIC "-//W3C//DTD SVG 20010904//EN"
 "http://www.w3.org/TR/2001/REC-SVG-20010904/DTD/svg10.dtd">
<svg version="1.0" xmlns="http://www.w3.org/2000/svg"
 width="96.000000pt" height="96.000000pt" viewBox="0 0 96.000000 96.000000"
 preserveAspectRatio="xMidYMid meet">
<metadata>
Created by potrace 1.10, written by Peter Selinger 2001-2011
</metadata>
<g transform="translate(0.000000,96.000000) scale(0.100000,-0.100000)"
fill="#000000" stroke="none">
<path d="M386 870 c-63 -16 -153 -70 -197 -117 -22 -24 -55 -74 -72 -111 -29
-61 -32 -76 -32 -163 0 -90 2 -99 37 -171 45 -91 103 -147 196 -191 61 -29 76
-32 162 -32 86 0 101 3 162 32 88 41 160 113 201 201 29 61 32 76 32 163 0 90
-2 99 -37 171 -68 136 -188 217 -336 224 -42 2 -94 -1 -116 -6z m230 -100 c62
-30 123 -92 155 -155 35 -72 35 -198 0 -270 -32 -63 -93 -124 -156 -156 -41
-20 -65 -24 -135 -24 -70 0 -94 4 -135 24 -178 88 -238 304 -130 468 38 57
105 109 169 129 61 20 172 12 232 -16z"/>
<path d="M411 703 c-90 -44 -117 -176 -56 -267 24 -35 24 -36 4 -36 -29 0 -74
26 -100 57 l-22 28 6 -33 c14 -72 91 -132 170 -132 41 0 101 22 129 47 17 15
18 15 18 -6 0 -31 -25 -75 -57 -102 l-28 -22 33 6 c72 14 132 91 132 170 0 41
-22 101 -47 129 -15 17 -15 18 6 18 31 0 75 -25 102 -57 l22 -28 -6 33 c-14
72 -91 132 -170 132 -41 0 -101 -22 -129 -47 -17 -15 -18 -15 -18 6 0 31 25
76 56 100 23 18 24 21 8 21 -11 0 -34 -8 -53 -17z m151 -137 c-2 -16 6 -51 18
-78 31 -71 25 -92 -25 -94 -22 -1 -61 -9 -87 -19 -59 -21 -81 -15 -72 20 4 16
-1 43 -15 75 -25 57 -27 100 -7 100 8 0 17 -4 21 -10 4 -6 16 -5 33 2 117 47
139 48 134 4z"/>
</g>
</svg>
